<svg id="kity_svg_6" xmlns="http://www.w3.org/2000/svg" xmlns:xlink="http://www.w3.org/1999/xlink" version="1.1" width="1640" height="449" style="background: rgb(251, 251, 251); visibility: visible;" viewBox="0 0 1640 449"><defs id="kity_defs_7"><linearGradient id="kity_linearGradient_17" x1="0" y1="0" x2="0" y2="1"><stop id="kity_stop_18" offset="0" stop-color="rgb(255, 255, 255)"></stop><stop id="kity_stop_19" offset="1" stop-color="rgb(204, 204, 204)"></stop></linearGradient><marker id="kity_marker_2" orient="auto" refX="6" refY="0" viewBox="-7 -7 14 14" markerWidth="7" markerHeight="7" markerUnits="userSpaceOnUse"><path id="kity_path_3" fill="rgb(115, 161, 191)" stroke="none" d="M6,0A6,6,0,1,1,-6,0A6,6,0,1,1,6,0"></path></marker></defs><g id="kity_g_8"><g id="minder1" text-rendering="optimize-speed"><g id="minder_connect_group1"><path id="kity_path_31" fill="none" stroke="rgb(115, 161, 191)" stroke-width="1" d="M841.5,222.5A176,0,0,0,1,1017.5,222.5"></path><path id="kity_path_33" fill="none" stroke="rgb(115, 161, 191)" stroke-width="1" d="M1144.5,222.5C1159.5,222.5,1159.5,179.5,1174.5,179.5L1343.5,179.5"></path><path id="kity_path_35" fill="none" stroke="rgb(115, 161, 191)" stroke-width="1" d="M1343.5,179.5C1358.5,179.5,1358.5,153.5,1373.5,153.5L1450.5,153.5"></path><path id="kity_path_37" fill="none" stroke="rgb(115, 161, 191)" stroke-width="1" d="M1343.5,179.5C1358.5,179.5,1358.5,210.5,1373.5,210.5L1620.5,210.5"></path><path id="kity_path_39" fill="none" stroke="rgb(115, 161, 191)" stroke-width="1" d="M1144.5,222.5C1159.5,222.5,1159.5,293.5,1174.5,293.5L1298.5,293.5"></path><path id="kity_path_41" fill="none" stroke="rgb(115, 161, 191)" stroke-width="1" d="M1298.5,293.5C1313.5,293.5,1313.5,267.5,1328.5,267.5L1405.5,267.5"></path><path id="kity_path_43" fill="none" stroke="rgb(115, 161, 191)" stroke-width="1" d="M1298.5,293.5C1313.5,293.5,1313.5,324.5,1328.5,324.5L1575.5,324.5"></path><path id="kity_path_45" fill="none" stroke="rgb(115, 161, 191)" stroke-width="1" d="M841.5,222.5A176,0,0,0,1,665.5,222.5"></path><path id="kity_path_47" fill="none" stroke="rgb(115, 161, 191)" stroke-width="1" d="M497.5,222.5C482.5,222.5,482.5,73.5,467.5,73.5L310.5,73.5"></path><path id="kity_path_49" fill="none" stroke="rgb(115, 161, 191)" stroke-width="1" d="M310.5,73.5C295.5,73.5,295.5,50.5,280.5,50.5L203.5,50.5"></path><path id="kity_path_51" fill="none" stroke="rgb(115, 161, 191)" stroke-width="1" d="M310.5,73.5C295.5,73.5,295.5,102.5,280.5,102.5L20.5,102.5"></path><path id="kity_path_53" fill="none" stroke="rgb(115, 161, 191)" stroke-width="1" d="M497.5,222.5C482.5,222.5,482.5,182.5,467.5,182.5L309.5,182.5"></path><path id="kity_path_55" fill="none" stroke="rgb(115, 161, 191)" stroke-width="1" d="M309.5,182.5C294.5,182.5,294.5,159.5,279.5,159.5L202.5,159.5"></path><path id="kity_path_57" fill="none" stroke="rgb(115, 161, 191)" stroke-width="1" d="M309.5,182.5C294.5,182.5,294.5,211.5,279.5,211.5L32.5,211.5"></path><path id="kity_path_59" fill="none" stroke="rgb(115, 161, 191)" stroke-width="1" d="M497.5,222.5C482.5,222.5,482.5,291.5,467.5,291.5L316.5,291.5"></path><path id="kity_path_61" fill="none" stroke="rgb(115, 161, 191)" stroke-width="1" d="M316.5,291.5C301.5,291.5,301.5,268.5,286.5,268.5L209.5,268.5"></path><path id="kity_path_63" fill="none" stroke="rgb(115, 161, 191)" stroke-width="1" d="M316.5,291.5C301.5,291.5,301.5,320.5,286.5,320.5L110.5,320.5"></path><path id="kity_path_65" fill="none" stroke="rgb(115, 161, 191)" stroke-width="1" d="M497.5,222.5C482.5,222.5,482.5,400.5,467.5,400.5L309.5,400.5"></path><path id="kity_path_67" fill="none" stroke="rgb(115, 161, 191)" stroke-width="1" d="M309.5,400.5C294.5,400.5,294.5,377.5,279.5,377.5L202.5,377.5"></path><path id="kity_path_69" fill="none" stroke="rgb(115, 161, 191)" stroke-width="1" d="M309.5,400.5C294.5,400.5,294.5,429.5,279.5,429.5L55.5,429.5"></path></g><g id="minder_node1"><path id="node_outline1" fill="rgb(115, 161, 191)" stroke="rgb(115, 161, 191)" d="M788.5,202.5h106a5,5,0,0,1,5,5v30a5,5,0,0,1,-5,5h-106a5,5,0,0,1,-5,-5v-30a5,5,0,0,1,5,-5z" stroke-width="3"></path><g id="node_text1" fill="white"><text id="kity_text_22" text-rendering="inherit" font-size="16" dy=".8em" y="212.09999990463257" x="807.5">UML类图</text></g></g><g id="kity_g_12"><path id="kity_path_13" fill="none" stroke="none" d="M807.5,222.5h0v0h0z"></path></g><g id="kity_g_14"><path id="kity_path_15" fill="none" stroke="none" d="M807.5,222.5h0v0h0z"></path><path id="kity_path_16" fill="none" stroke="none"></path></g><g id="minder_node2"><g id="node_expander7" style="cursor: pointer;"><path id="kity_path_169" fill="white" stroke="gray" d="M1018.5,222.5A6,6,0,1,1,1006.5,222.5A6,6,0,1,1,1018.5,222.5"></path><path id="kity_path_170" fill="none" stroke="gray" d="M1008,222.5L1017,222.5"></path></g><path id="node_outline8" fill="rgb(238, 243, 246)" stroke="rgb(115, 161, 191)" d="M1022.5,209.5h119a3,3,0,0,1,3,3v20a3,3,0,0,1,-3,3h-119a3,3,0,0,1,-3,-3v-20a3,3,0,0,1,3,-3z" stroke-width="1"></path><g id="node_text8" fill="black"><text id="kity_text_83" text-rendering="inherit" font-size="14" dy=".8em" y="213.40000009536743" x="1039.5">类的继承结构</text></g></g><g id="minder_node3"><g id="node_expander3" style="cursor: pointer;"><path id="kity_path_157" fill="white" stroke="gray" d="M1184.5,165.5A6,6,0,1,1,1172.5,165.5A6,6,0,1,1,1184.5,165.5"></path><path id="kity_path_158" fill="none" stroke="gray" d="M1174,165.5L1183,165.5"></path></g><path id="node_outline4" fill="none" stroke="none" d="M1189.5,154.5h149a5,5,0,0,1,5,5v12a5,5,0,0,1,-5,5h-149a5,5,0,0,1,-5,-5v-12a5,5,0,0,1,5,-5z"></path><g id="node_text4" fill="black"><text id="kity_text_75" text-rendering="inherit" font-size="12" dy=".8em" y="157.70000004768372" x="1194.5">泛化关系(generalization)</text></g></g><g id="minder_node4"><g id="node_expander1" display="none" style="cursor: pointer;"><path id="kity_path_151" fill="white" stroke="gray" d="M1383.5,137A6,6,0,1,1,1371.5,137A6,6,0,1,1,1383.5,137"></path><path id="kity_path_152" fill="none" stroke="gray"></path></g><path id="node_outline2" fill="none" stroke="none" d="M1388.5,123.5h57a5,5,0,0,1,5,5v17a5,5,0,0,1,-5,5h-57a5,5,0,0,1,-5,-5v-17a5,5,0,0,1,5,-5z"></path><g id="node_text2" fill="black"><text id="kity_text_71" text-rendering="inherit" font-size="12" dy=".8em" y="128.70000004768372" x="1393.5">描述</text></g><g id="kity_g_110" style="cursor: pointer;"><path id="kity_path_111" fill="none" stroke="none" d="M1427,128h12a2,2,0,0,1,2,2v13a2,2,0,0,1,-2,2h-12a2,2,0,0,1,-2,-2v-13a2,2,0,0,1,2,-2z"></path><path id="kity_path_112" fill="black" stroke="none" d="M1436,139H1430V138h6L1436,139L1436,139zM1436,137H1430V136h6V137zM1436,135H1430V134h6V135zM1435.5,141H1429V132h8v7.5M1436,142l2,-2V131H1428v11"></path></g></g><g id="minder_node5"><g id="node_expander2" display="none" style="cursor: pointer;"><path id="kity_path_154" fill="white" stroke="gray" d="M1383.5,194A6,6,0,1,1,1371.5,194A6,6,0,1,1,1383.5,194"></path><path id="kity_path_155" fill="none" stroke="gray"></path></g><path id="node_outline3" fill="none" stroke="none" d="M1388.5,180.5h227a5,5,0,0,1,5,5v17a5,5,0,0,1,-5,5h-227a5,5,0,0,1,-5,-5v-17a5,5,0,0,1,5,-5z"></path><g id="node_text3" fill="black"><text id="kity_text_73" text-rendering="inherit" font-size="12" dy=".8em" y="188.70000004768372" x="1393.5">泛化关系用一条带空心箭头的直接表示；</text></g><image id="kity_image_128" xlink:href="https://github.com/wzw9803/wzwPaper/blob/main/NoteBooks/_programmingIdeas/_assets/Snipaste_2021-08-23_10-52-56.png" x="1501.5" y="185.5" width="0" height="0"></image></g><g id="minder_node6"><g id="node_expander6" style="cursor: pointer;"><path id="kity_path_166" fill="white" stroke="gray" d="M1184.5,279.5A6,6,0,1,1,1172.5,279.5A6,6,0,1,1,1184.5,279.5"></path><path id="kity_path_167" fill="none" stroke="gray" d="M1174,279.5L1183,279.5"></path></g><path id="node_outline7" fill="none" stroke="none" d="M1189.5,268.5h104a5,5,0,0,1,5,5v12a5,5,0,0,1,-5,5h-104a5,5,0,0,1,-5,-5v-12a5,5,0,0,1,5,-5z"></path><g id="node_text7" fill="black"><text id="kity_text_81" text-rendering="inherit" font-size="12" dy=".8em" y="271.7000000476837" x="1194.5">实现关系(realize)</text></g></g><g id="minder_node7"><g id="node_expander4" display="none" style="cursor: pointer;"><path id="kity_path_160" fill="white" stroke="gray" d="M1338.5,251A6,6,0,1,1,1326.5,251A6,6,0,1,1,1338.5,251"></path><path id="kity_path_161" fill="none" stroke="gray"></path></g><path id="node_outline5" fill="none" stroke="none" d="M1343.5,237.5h57a5,5,0,0,1,5,5v17a5,5,0,0,1,-5,5h-57a5,5,0,0,1,-5,-5v-17a5,5,0,0,1,5,-5z"></path><g id="node_text5" fill="black"><text id="kity_text_77" text-rendering="inherit" font-size="12" dy=".8em" y="242.70000004768372" x="1348.5">描述</text></g><g id="kity_g_113" style="cursor: pointer;"><path id="kity_path_114" fill="none" stroke="none" d="M1382,242h12a2,2,0,0,1,2,2v13a2,2,0,0,1,-2,2h-12a2,2,0,0,1,-2,-2v-13a2,2,0,0,1,2,-2z"></path><path id="kity_path_115" fill="black" stroke="none" d="M1391,253H1385V252h6L1391,253L1391,253zM1391,251H1385V250h6V251zM1391,249H1385V248h6V249zM1390.5,255H1384V246h8v7.5M1391,256l2,-2V245H1383v11"></path></g></g><g id="minder_node8"><g id="node_expander5" display="none" style="cursor: pointer;"><path id="kity_path_163" fill="white" stroke="gray" d="M1338.5,308A6,6,0,1,1,1326.5,308A6,6,0,1,1,1338.5,308"></path><path id="kity_path_164" fill="none" stroke="gray"></path></g><path id="node_outline6" fill="none" stroke="none" d="M1343.5,294.5h227a5,5,0,0,1,5,5v17a5,5,0,0,1,-5,5h-227a5,5,0,0,1,-5,-5v-17a5,5,0,0,1,5,-5z"></path><g id="node_text6" fill="black"><text id="kity_text_79" text-rendering="inherit" font-size="12" dy=".8em" y="302.7000000476837" x="1348.5">实现关系用一条带空心箭头的虚线表示；</text></g><image id="kity_image_129" xlink:href="https://github.com/wzw9803/wzwPaper/blob/main/NoteBooks/_programmingIdeas/_assets/Snipaste_2021-08-23_12-32-29.png" x="1456.5" y="299.5" width="0" height="0"></image></g><g id="minder_node9"><g id="node_expander20" style="cursor: pointer;"><path id="kity_path_208" fill="white" stroke="gray" d="M676.5,222.5A6,6,0,1,1,664.5,222.5A6,6,0,1,1,676.5,222.5"></path><path id="kity_path_209" fill="none" stroke="gray" d="M666,222.5L675,222.5"></path></g><path id="node_outline21" fill="rgb(238, 243, 246)" stroke="rgb(115, 161, 191)" d="M500.5,209.5h160a3,3,0,0,1,3,3v20a3,3,0,0,1,-3,3h-160a3,3,0,0,1,-3,-3v-20a3,3,0,0,1,3,-3z" stroke-width="1"></path><g id="node_text21" fill="black"><text id="kity_text_109" text-rendering="inherit" font-size="14" dy=".8em" y="213.40000009536743" x="517.5">实体对象之间的关系</text></g></g><g id="minder_node10"><g id="node_expander10" style="cursor: pointer;"><path id="kity_path_178" fill="white" stroke="gray" d="M469.5,59.5A6,6,0,1,1,457.5,59.5A6,6,0,1,1,469.5,59.5"></path><path id="kity_path_179" fill="none" stroke="gray" d="M459,59.5L468,59.5"></path></g><path id="node_outline11" fill="none" stroke="none" d="M315.5,48.5h137a5,5,0,0,1,5,5v12a5,5,0,0,1,-5,5h-137a5,5,0,0,1,-5,-5v-12a5,5,0,0,1,5,-5z"></path><g id="node_text11" fill="black"><text id="kity_text_89" text-rendering="inherit" font-size="12" dy=".8em" y="51.700000047683716" x="320.5">聚合关系(aggregation)</text></g></g><g id="minder_node11"><g id="node_expander8" style="cursor: pointer;" display="none"><path id="kity_path_172" fill="white" stroke="gray" d="M282.5,34A6,6,0,1,1,270.5,34A6,6,0,1,1,282.5,34"></path><path id="kity_path_173" fill="none" stroke="gray"></path></g><path id="node_outline9" fill="none" stroke="none" d="M208.5,20.5h57a5,5,0,0,1,5,5v17a5,5,0,0,1,-5,5h-57a5,5,0,0,1,-5,-5v-17a5,5,0,0,1,5,-5z" stroke-width="3"></path><g id="node_text9" fill="black"><text id="kity_text_85" text-rendering="inherit" font-size="12" dy=".8em" y="25.700000047683716" x="213.5">描述</text></g><g id="kity_g_116" style="cursor: pointer;"><path id="kity_path_117" fill="none" stroke="none" d="M247,25h12a2,2,0,0,1,2,2v13a2,2,0,0,1,-2,2h-12a2,2,0,0,1,-2,-2v-13a2,2,0,0,1,2,-2z"></path><path id="kity_path_118" fill="black" stroke="none" d="M256,36H250V35h6L256,36L256,36zM256,34H250V33h6V34zM256,32H250V31h6V32zM255.5,38H249V29h8v7.5M256,39l2,-2V28H248v11"></path></g></g><g id="minder_node12"><g id="node_expander9" display="none" style="cursor: pointer;"><path id="kity_path_175" fill="white" stroke="gray" d="M282.5,88.5A6,6,0,1,1,270.5,88.5A6,6,0,1,1,282.5,88.5"></path><path id="kity_path_176" fill="none" stroke="gray"></path></g><path id="node_outline10" fill="none" stroke="none" d="M25.5,77.5h240a5,5,0,0,1,5,5v12a5,5,0,0,1,-5,5h-240a5,5,0,0,1,-5,-5v-12a5,5,0,0,1,5,-5z"></path><g id="node_text10" fill="black"><text id="kity_text_87" text-rendering="inherit" font-size="12" dy=".8em" y="80.70000004768372" x="30.5">聚合关系用一条带空心菱形箭头的直线表示</text></g></g><g id="minder_node13"><g id="node_expander13" style="cursor: pointer;"><path id="kity_path_187" fill="white" stroke="gray" d="M469.5,168.5A6,6,0,1,1,457.5,168.5A6,6,0,1,1,469.5,168.5"></path><path id="kity_path_188" fill="none" stroke="gray" d="M459,168.5L468,168.5"></path></g><path id="node_outline14" fill="none" stroke="none" d="M314.5,157.5h138a5,5,0,0,1,5,5v12a5,5,0,0,1,-5,5h-138a5,5,0,0,1,-5,-5v-12a5,5,0,0,1,5,-5z"></path><g id="node_text14" fill="black"><text id="kity_text_95" text-rendering="inherit" font-size="12" dy=".8em" y="160.70000004768372" x="319.5">组合关系(composition)</text></g></g><g id="minder_node14"><g id="node_expander11" display="none" style="cursor: pointer;"><path id="kity_path_181" fill="white" stroke="gray" d="M281.5,143A6,6,0,1,1,269.5,143A6,6,0,1,1,281.5,143"></path><path id="kity_path_182" fill="none" stroke="gray"></path></g><path id="node_outline12" fill="none" stroke="none" d="M207.5,129.5h57a5,5,0,0,1,5,5v17a5,5,0,0,1,-5,5h-57a5,5,0,0,1,-5,-5v-17a5,5,0,0,1,5,-5z"></path><g id="node_text12" fill="black"><text id="kity_text_91" text-rendering="inherit" font-size="12" dy=".8em" y="134.70000004768372" x="212.5">描述</text></g><g id="kity_g_119" style="cursor: pointer;"><path id="kity_path_120" fill="none" stroke="none" d="M246,134h12a2,2,0,0,1,2,2v13a2,2,0,0,1,-2,2h-12a2,2,0,0,1,-2,-2v-13a2,2,0,0,1,2,-2z"></path><path id="kity_path_121" fill="black" stroke="none" d="M255,145H249V144h6L255,145L255,145zM255,143H249V142h6V143zM255,141H249V140h6V141zM254.5,147H248V138h8v7.5M255,148l2,-2V137H247v11"></path></g></g><g id="minder_node15"><g id="node_expander12" display="none" style="cursor: pointer;"><path id="kity_path_184" fill="white" stroke="gray" d="M281.5,197.5A6,6,0,1,1,269.5,197.5A6,6,0,1,1,281.5,197.5"></path><path id="kity_path_185" fill="none" stroke="gray"></path></g><path id="node_outline13" fill="none" stroke="none" d="M37.5,186.5h227a5,5,0,0,1,5,5v12a5,5,0,0,1,-5,5h-227a5,5,0,0,1,-5,-5v-12a5,5,0,0,1,5,-5z"></path><g id="node_text13" fill="black"><text id="kity_text_93" text-rendering="inherit" font-size="12" dy=".8em" y="189.70000004768372" x="42.5">组合关系用一条带实心菱形箭头直线表示</text></g></g><g id="minder_node16"><g id="node_expander16" style="cursor: pointer;"><path id="kity_path_196" fill="white" stroke="gray" d="M469.5,277.5A6,6,0,1,1,457.5,277.5A6,6,0,1,1,469.5,277.5"></path><path id="kity_path_197" fill="none" stroke="gray" d="M459,277.5L468,277.5"></path></g><path id="node_outline17" fill="none" stroke="none" d="M321.5,266.5h131a5,5,0,0,1,5,5v12a5,5,0,0,1,-5,5h-131a5,5,0,0,1,-5,-5v-12a5,5,0,0,1,5,-5z"></path><g id="node_text17" fill="black"><text id="kity_text_101" text-rendering="inherit" font-size="12" dy=".8em" y="269.7000000476837" x="326.5">关联关系(association)</text></g></g><g id="minder_node17"><g id="node_expander14" display="none" style="cursor: pointer;"><path id="kity_path_190" fill="white" stroke="gray" d="M288.5,252A6,6,0,1,1,276.5,252A6,6,0,1,1,288.5,252"></path><path id="kity_path_191" fill="none" stroke="gray"></path></g><path id="node_outline15" fill="none" stroke="none" d="M214.5,238.5h57a5,5,0,0,1,5,5v17a5,5,0,0,1,-5,5h-57a5,5,0,0,1,-5,-5v-17a5,5,0,0,1,5,-5z"></path><g id="node_text15" fill="black"><text id="kity_text_97" text-rendering="inherit" font-size="12" dy=".8em" y="243.70000004768372" x="219.5">描述</text></g><g id="kity_g_122" style="cursor: pointer;"><path id="kity_path_123" fill="none" stroke="none" d="M253,243h12a2,2,0,0,1,2,2v13a2,2,0,0,1,-2,2h-12a2,2,0,0,1,-2,-2v-13a2,2,0,0,1,2,-2z"></path><path id="kity_path_124" fill="black" stroke="none" d="M262,254H256V253h6L262,254L262,254zM262,252H256V251h6V252zM262,250H256V249h6V250zM261.5,256H255V247h8v7.5M262,257l2,-2V246H254v11"></path></g></g><g id="minder_node18"><g id="node_expander15" display="none" style="cursor: pointer;"><path id="kity_path_193" fill="white" stroke="gray" d="M288.5,306.5A6,6,0,1,1,276.5,306.5A6,6,0,1,1,288.5,306.5"></path><path id="kity_path_194" fill="none" stroke="gray"></path></g><path id="node_outline16" fill="none" stroke="none" d="M115.5,295.5h156a5,5,0,0,1,5,5v12a5,5,0,0,1,-5,5h-156a5,5,0,0,1,-5,-5v-12a5,5,0,0,1,5,-5z"></path><g id="node_text16" fill="black"><text id="kity_text_99" text-rendering="inherit" font-size="12" dy=".8em" y="298.7000000476837" x="120.5">关联关系是用一条直线表示</text></g></g><g id="minder_node19"><g id="node_expander19" style="cursor: pointer;"><path id="kity_path_205" fill="white" stroke="gray" d="M469.5,386.5A6,6,0,1,1,457.5,386.5A6,6,0,1,1,469.5,386.5"></path><path id="kity_path_206" fill="none" stroke="gray" d="M459,386.5L468,386.5"></path></g><path id="node_outline20" fill="none" stroke="none" d="M314.5,375.5h138a5,5,0,0,1,5,5v12a5,5,0,0,1,-5,5h-138a5,5,0,0,1,-5,-5v-12a5,5,0,0,1,5,-5z"></path><g id="node_text20" fill="black"><text id="kity_text_107" text-rendering="inherit" font-size="12" dy=".8em" y="378.7000000476837" x="319.5">依赖关系(dependency)</text></g></g><g id="minder_node20"><g id="node_expander17" display="none" style="cursor: pointer;"><path id="kity_path_199" fill="white" stroke="gray" d="M281.5,361A6,6,0,1,1,269.5,361A6,6,0,1,1,281.5,361"></path><path id="kity_path_200" fill="none" stroke="gray"></path></g><path id="node_outline18" fill="none" stroke="none" d="M207.5,347.5h57a5,5,0,0,1,5,5v17a5,5,0,0,1,-5,5h-57a5,5,0,0,1,-5,-5v-17a5,5,0,0,1,5,-5z"></path><g id="node_text18" fill="black"><text id="kity_text_103" text-rendering="inherit" font-size="12" dy=".8em" y="352.7000000476837" x="212.5">描述</text></g><g id="kity_g_125" style="cursor: pointer;"><path id="kity_path_126" fill="none" stroke="none" d="M246,352h12a2,2,0,0,1,2,2v13a2,2,0,0,1,-2,2h-12a2,2,0,0,1,-2,-2v-13a2,2,0,0,1,2,-2z"></path><path id="kity_path_127" fill="black" stroke="none" d="M255,363H249V362h6L255,363L255,363zM255,361H249V360h6V361zM255,359H249V358h6V359zM254.5,365H248V356h8v7.5M255,366l2,-2V355H247v11"></path></g></g><g id="minder_node21"><g id="node_expander18" display="none" style="cursor: pointer;"><path id="kity_path_202" fill="white" stroke="gray" d="M281.5,415.5A6,6,0,1,1,269.5,415.5A6,6,0,1,1,281.5,415.5"></path><path id="kity_path_203" fill="none" stroke="gray"></path></g><path id="node_outline19" fill="none" stroke="none" d="M60.5,404.5h204a5,5,0,0,1,5,5v12a5,5,0,0,1,-5,5h-204a5,5,0,0,1,-5,-5v-12a5,5,0,0,1,5,-5z"></path><g id="node_text19" fill="black"><text id="kity_text_105" text-rendering="inherit" font-size="12" dy=".8em" y="407.7000000476837" x="65.5">依赖关系是用一套带箭头的虚线表示</text></g></g></g></g></svg>